<svg width="50" height="51" viewBox="0 0 50 51" fill="none" xmlns="http://www.w3.org/2000/svg">
<circle cx="25.0001" cy="25.5371" r="25" fill="#E50609"/>
<g clip-path="url(#clip0_1_109)">
<path d="M32.3334 18.6667H32.3467M18.3334 12.6667H31.6667C35.3486 12.6667 38.3334 15.6514 38.3334 19.3333V32.6667C38.3334 36.3486 35.3486 39.3333 31.6667 39.3333H18.3334C14.6515 39.3333 11.6667 36.3486 11.6667 32.6667V19.3333C11.6667 15.6514 14.6515 12.6667 18.3334 12.6667ZM30.3334 25.16C30.4979 26.2697 30.3084 27.403 29.7917 28.3987C29.275 29.3944 28.4575 30.2019 27.4555 30.7062C26.4535 31.2106 25.318 31.3861 24.2104 31.2079C23.1029 31.0297 22.0797 30.5068 21.2865 29.7135C20.4932 28.9203 19.9703 27.8972 19.7921 26.7896C19.6139 25.6821 19.7894 24.5465 20.2938 23.5445C20.7981 22.5425 21.6056 21.725 22.6013 21.2083C23.5971 20.6917 24.7304 20.5021 25.84 20.6667C26.9719 20.8345 28.0198 21.362 28.8289 22.1711C29.6381 22.9802 30.1655 24.0281 30.3334 25.16Z" stroke="white" stroke-width="4" stroke-linecap="round" stroke-linejoin="round"/>
</g>
<defs>
<clipPath id="clip0_1_109">
<rect width="32" height="32" fill="white" transform="translate(9 10)"/>
</clipPath>
</defs>
</svg>
